<?xml version="1.0" standalone="no"?><svg xmlns="http://www.w3.org/2000/svg" viewBox="0 0 1440 320"><path fill="#0099ff" fill-opacity="1" d="M0,192L26.7,202.7C53.3,213,107,235,160,224C213.3,213,267,171,320,154.7C373.3,139,427,149,480,176C533.3,203,587,245,640,240C693.3,235,747,181,800,170.7C853.3,160,907,192,960,208C1013.3,224,1067,224,1120,229.3C1173.3,235,1227,245,1280,234.7C1333.3,224,1387,192,1413,176L1440,160L1440,320L1413.3,320C1386.7,320,1333,320,1280,320C1226.7,320,1173,320,1120,320C1066.7,320,1013,320,960,320C906.7,320,853,320,800,320C746.7,320,693,320,640,320C586.7,320,533,320,480,320C426.7,320,373,320,320,320C266.7,320,213,320,160,320C106.7,320,53,320,27,320L0,320Z"></path></svg>